<mxfile host="Electron" modified="2024-06-25T13:12:10.179Z" agent="Mozilla/5.0 (Windows NT 10.0; Win64; x64) AppleWebKit/537.36 (KHTML, like Gecko) draw.io/24.6.1 Chrome/124.0.6367.207 Electron/30.0.6 Safari/537.36" etag="-5RLOhcz9O6Bvj6MUG06" version="24.6.1" type="device">
  <diagram id="C5RBs43oDa-KdzZeNtuy" name="Page-1">
    <mxGraphModel dx="1687" dy="993" grid="1" gridSize="10" guides="1" tooltips="1" connect="1" arrows="1" fold="1" page="1" pageScale="1" pageWidth="827" pageHeight="1169" math="0" shadow="0">
      <root>
        <mxCell id="WIyWlLk6GJQsqaUBKTNV-0" />
        <mxCell id="WIyWlLk6GJQsqaUBKTNV-1" parent="WIyWlLk6GJQsqaUBKTNV-0" />
        <mxCell id="vxBTdehcmTf2MZjHaRr5-13" value="" style="edgeStyle=orthogonalEdgeStyle;rounded=0;orthogonalLoop=1;jettySize=auto;html=1;" parent="WIyWlLk6GJQsqaUBKTNV-1" source="WIyWlLk6GJQsqaUBKTNV-3" target="vxBTdehcmTf2MZjHaRr5-0" edge="1">
          <mxGeometry relative="1" as="geometry" />
        </mxCell>
        <mxCell id="WIyWlLk6GJQsqaUBKTNV-3" value="START" style="rounded=1;whiteSpace=wrap;html=1;fontSize=12;glass=0;strokeWidth=1;shadow=0;" parent="WIyWlLk6GJQsqaUBKTNV-1" vertex="1">
          <mxGeometry x="360" y="80" width="120" height="40" as="geometry" />
        </mxCell>
        <mxCell id="vxBTdehcmTf2MZjHaRr5-12" value="" style="edgeStyle=orthogonalEdgeStyle;rounded=0;orthogonalLoop=1;jettySize=auto;html=1;" parent="WIyWlLk6GJQsqaUBKTNV-1" source="vxBTdehcmTf2MZjHaRr5-0" target="vxBTdehcmTf2MZjHaRr5-1" edge="1">
          <mxGeometry relative="1" as="geometry" />
        </mxCell>
        <mxCell id="vxBTdehcmTf2MZjHaRr5-0" value="Connecting to DB" style="rounded=0;whiteSpace=wrap;html=1;" parent="WIyWlLk6GJQsqaUBKTNV-1" vertex="1">
          <mxGeometry x="360" y="160" width="120" height="40" as="geometry" />
        </mxCell>
        <mxCell id="w3IFu-7SHLs4qxInBvCm-1" value="" style="edgeStyle=orthogonalEdgeStyle;rounded=0;orthogonalLoop=1;jettySize=auto;html=1;" edge="1" parent="WIyWlLk6GJQsqaUBKTNV-1" source="vxBTdehcmTf2MZjHaRr5-1" target="vxBTdehcmTf2MZjHaRr5-16">
          <mxGeometry relative="1" as="geometry" />
        </mxCell>
        <mxCell id="vxBTdehcmTf2MZjHaRr5-1" value="Ask for&lt;div&gt;Report Name&lt;/div&gt;" style="rhombus;whiteSpace=wrap;html=1;" parent="WIyWlLk6GJQsqaUBKTNV-1" vertex="1">
          <mxGeometry x="360" y="240" width="120" height="80" as="geometry" />
        </mxCell>
        <mxCell id="w3IFu-7SHLs4qxInBvCm-14" value="" style="edgeStyle=orthogonalEdgeStyle;rounded=0;orthogonalLoop=1;jettySize=auto;html=1;" edge="1" parent="WIyWlLk6GJQsqaUBKTNV-1" source="vxBTdehcmTf2MZjHaRr5-16" target="vxBTdehcmTf2MZjHaRr5-22">
          <mxGeometry relative="1" as="geometry" />
        </mxCell>
        <mxCell id="vxBTdehcmTf2MZjHaRr5-16" value="Execute SQL Query" style="rounded=0;whiteSpace=wrap;html=1;" parent="WIyWlLk6GJQsqaUBKTNV-1" vertex="1">
          <mxGeometry x="360" y="360" width="120" height="40" as="geometry" />
        </mxCell>
        <mxCell id="vxBTdehcmTf2MZjHaRr5-28" value="" style="edgeStyle=orthogonalEdgeStyle;rounded=0;orthogonalLoop=1;jettySize=auto;html=1;" parent="WIyWlLk6GJQsqaUBKTNV-1" source="vxBTdehcmTf2MZjHaRr5-21" target="vxBTdehcmTf2MZjHaRr5-27" edge="1">
          <mxGeometry relative="1" as="geometry" />
        </mxCell>
        <mxCell id="vxBTdehcmTf2MZjHaRr5-21" value="import data into workbook" style="rounded=0;whiteSpace=wrap;html=1;" parent="WIyWlLk6GJQsqaUBKTNV-1" vertex="1">
          <mxGeometry x="360" y="840" width="120" height="40" as="geometry" />
        </mxCell>
        <mxCell id="w3IFu-7SHLs4qxInBvCm-15" value="" style="edgeStyle=orthogonalEdgeStyle;rounded=0;orthogonalLoop=1;jettySize=auto;html=1;" edge="1" parent="WIyWlLk6GJQsqaUBKTNV-1" source="vxBTdehcmTf2MZjHaRr5-22" target="w3IFu-7SHLs4qxInBvCm-13">
          <mxGeometry relative="1" as="geometry" />
        </mxCell>
        <mxCell id="vxBTdehcmTf2MZjHaRr5-22" value="Ask for File Name" style="rhombus;whiteSpace=wrap;html=1;" parent="WIyWlLk6GJQsqaUBKTNV-1" vertex="1">
          <mxGeometry x="360" y="440" width="120" height="80" as="geometry" />
        </mxCell>
        <mxCell id="vxBTdehcmTf2MZjHaRr5-26" value="END" style="rounded=1;whiteSpace=wrap;html=1;" parent="WIyWlLk6GJQsqaUBKTNV-1" vertex="1">
          <mxGeometry x="360" y="1000" width="120" height="40" as="geometry" />
        </mxCell>
        <mxCell id="vxBTdehcmTf2MZjHaRr5-29" value="" style="edgeStyle=orthogonalEdgeStyle;rounded=0;orthogonalLoop=1;jettySize=auto;html=1;" parent="WIyWlLk6GJQsqaUBKTNV-1" source="vxBTdehcmTf2MZjHaRr5-27" target="vxBTdehcmTf2MZjHaRr5-26" edge="1">
          <mxGeometry relative="1" as="geometry" />
        </mxCell>
        <mxCell id="vxBTdehcmTf2MZjHaRr5-27" value="Save Excel File" style="rounded=0;whiteSpace=wrap;html=1;" parent="WIyWlLk6GJQsqaUBKTNV-1" vertex="1">
          <mxGeometry x="360" y="920" width="120" height="40" as="geometry" />
        </mxCell>
        <mxCell id="w3IFu-7SHLs4qxInBvCm-7" value="" style="edgeStyle=orthogonalEdgeStyle;rounded=0;orthogonalLoop=1;jettySize=auto;html=1;" edge="1" parent="WIyWlLk6GJQsqaUBKTNV-1" source="w3IFu-7SHLs4qxInBvCm-3" target="w3IFu-7SHLs4qxInBvCm-6">
          <mxGeometry relative="1" as="geometry" />
        </mxCell>
        <mxCell id="w3IFu-7SHLs4qxInBvCm-10" value="NO" style="edgeLabel;html=1;align=center;verticalAlign=middle;resizable=0;points=[];" vertex="1" connectable="0" parent="w3IFu-7SHLs4qxInBvCm-7">
          <mxGeometry x="-0.2" relative="1" as="geometry">
            <mxPoint as="offset" />
          </mxGeometry>
        </mxCell>
        <mxCell id="w3IFu-7SHLs4qxInBvCm-11" value="" style="edgeStyle=orthogonalEdgeStyle;rounded=0;orthogonalLoop=1;jettySize=auto;html=1;" edge="1" parent="WIyWlLk6GJQsqaUBKTNV-1" source="w3IFu-7SHLs4qxInBvCm-3" target="w3IFu-7SHLs4qxInBvCm-5">
          <mxGeometry relative="1" as="geometry" />
        </mxCell>
        <mxCell id="w3IFu-7SHLs4qxInBvCm-12" value="YES" style="edgeLabel;html=1;align=center;verticalAlign=middle;resizable=0;points=[];" vertex="1" connectable="0" parent="w3IFu-7SHLs4qxInBvCm-11">
          <mxGeometry x="0.05" y="1" relative="1" as="geometry">
            <mxPoint as="offset" />
          </mxGeometry>
        </mxCell>
        <mxCell id="w3IFu-7SHLs4qxInBvCm-3" value="Check if&amp;nbsp;&lt;div&gt;Workbook exists&lt;/div&gt;" style="rhombus;whiteSpace=wrap;html=1;" vertex="1" parent="WIyWlLk6GJQsqaUBKTNV-1">
          <mxGeometry x="360" y="640" width="120" height="80" as="geometry" />
        </mxCell>
        <mxCell id="w3IFu-7SHLs4qxInBvCm-19" style="edgeStyle=orthogonalEdgeStyle;rounded=0;orthogonalLoop=1;jettySize=auto;html=1;entryX=0;entryY=0.5;entryDx=0;entryDy=0;" edge="1" parent="WIyWlLk6GJQsqaUBKTNV-1" source="w3IFu-7SHLs4qxInBvCm-5" target="vxBTdehcmTf2MZjHaRr5-21">
          <mxGeometry relative="1" as="geometry">
            <Array as="points">
              <mxPoint x="220" y="860" />
            </Array>
          </mxGeometry>
        </mxCell>
        <mxCell id="w3IFu-7SHLs4qxInBvCm-5" value="Read Existing Workbook" style="rounded=0;whiteSpace=wrap;html=1;" vertex="1" parent="WIyWlLk6GJQsqaUBKTNV-1">
          <mxGeometry x="160" y="660" width="120" height="40" as="geometry" />
        </mxCell>
        <mxCell id="w3IFu-7SHLs4qxInBvCm-20" value="" style="edgeStyle=orthogonalEdgeStyle;rounded=0;orthogonalLoop=1;jettySize=auto;html=1;" edge="1" parent="WIyWlLk6GJQsqaUBKTNV-1" source="w3IFu-7SHLs4qxInBvCm-6" target="vxBTdehcmTf2MZjHaRr5-21">
          <mxGeometry relative="1" as="geometry" />
        </mxCell>
        <mxCell id="w3IFu-7SHLs4qxInBvCm-6" value="Create New Workbook" style="rounded=0;whiteSpace=wrap;html=1;" vertex="1" parent="WIyWlLk6GJQsqaUBKTNV-1">
          <mxGeometry x="360" y="760" width="120" height="40" as="geometry" />
        </mxCell>
        <mxCell id="w3IFu-7SHLs4qxInBvCm-18" value="" style="edgeStyle=orthogonalEdgeStyle;rounded=0;orthogonalLoop=1;jettySize=auto;html=1;" edge="1" parent="WIyWlLk6GJQsqaUBKTNV-1" source="w3IFu-7SHLs4qxInBvCm-13" target="w3IFu-7SHLs4qxInBvCm-3">
          <mxGeometry relative="1" as="geometry" />
        </mxCell>
        <mxCell id="w3IFu-7SHLs4qxInBvCm-13" value="Create Workbook" style="rounded=0;whiteSpace=wrap;html=1;" vertex="1" parent="WIyWlLk6GJQsqaUBKTNV-1">
          <mxGeometry x="360" y="560" width="120" height="40" as="geometry" />
        </mxCell>
      </root>
    </mxGraphModel>
  </diagram>
</mxfile>
